<svg xmlns="http://www.w3.org/2000/svg" width="16" height="16" fill="currentColor" class="bi bi-question-circle"
     viewBox="0 0 16 16" xmlns:xlink="http://www.w3.org/1999/xlink" preserveAspectRatio="xMinYMin meet">
    <rect id="svgEditorBackground" x="0" y="0" width="16" height="16" style="fill:none;stroke:none;"/>
    <defs id="svgEditorDefs">
        <linearGradient gradientUnits="objectBoundingBox" id="lgrd2-peachpuff-sienna-h" spreadMethod="pad" x1="0%"
                        x2="100%" y1="0%" y2="0%">
            <stop offset="0%" style="stop-color:peachpuff;  stop-opacity:1;"/>
            <stop offset="100%" style="stop-color:sienna;  stop-opacity:1"/>
        </linearGradient>
        <linearGradient gradientUnits="objectBoundingBox" id="lgrd2-peachpuff-sienna-v" spreadMethod="pad" x1="0%"
                        x2="0%" y1="0%" y2="100%">
            <stop offset="0%" style="stop-color:peachpuff;  stop-opacity:0.84;"/>
            <stop offset="100%" style="stop-color:sienna;  stop-opacity:1"/>
        </linearGradient>
    </defs>
    <path d="M8,15A7,7,0,1,1,8,1a7,7,0,0,1,0,14Zm0,1A8,8,0,1,0,8,0a8,8,0,0,0,0,16Z" style="fill:cornflowerblue;"
          id="e1_path"/>
    <path
        d="M5.255,5.786a.237,.237,0,0,0,.241,.247h.825c.138,0,.248,-.113,.266,-.25c.09,-.656,.54,-1.134,1.342,-1.134c.686,0,1.314,.343,1.314,1.168c0,.635,-.374,.927,-.965,1.371c-.673,.489,-1.206,1.06,-1.168,1.987l.003,.217a.25,.25,0,0,0,.25,.246h.811a.25,.25,0,0,0,.25,-.25v-.105c0,-.718,.273,-.927,1.01,-1.486c.609,-.463,1.244,-.977,1.244,-2.056c0,-1.511,-1.276,-2.241,-2.673,-2.241c-1.267,0,-2.655,.59,-2.75,2.286Zm1.557,5.763c0,.533,.425,.927,1.01,.927c.609,0,1.028,-.394,1.028,-.927c0,-.552,-.42,-.94,-1.029,-.94c-.584,0,-1.009,.388,-1.009,.94Z"
        style="fill:cornflowerblue;"/>
</svg>
